<svg id="Capa_1" enable-background="new 0 0 512 512" height="128" viewBox="0 0 512 512" width="128" xmlns="http://www.w3.org/2000/svg"><g><path d="m387.567 358.259c-6.028-3.938-12.87-5.647-19.554-5.296 2.216-11.395-1.173-23.561-9.94-32.266-7.036-6.985-16.743-10.774-26.659-10.377-.933.037-1.859.122-2.781.231.444-2.949.537-5.976.25-9.031-.945-10.069-5.821-19.086-13.729-25.391-6.06-4.831-13.138-7.458-20.291-7.99l40.111-47.001c13.241-14.873 10.372-39.869-5.891-51.358-14.471-10.682-34.617-8.803-46.861 4.372l-36.102 38.845c-3.574-22.747-18.813-41.971-40.846-50.532-10.827-4.563-23.801 4.316-23.467 16.059v103.674l-19.709 21.206c-2.825 3.04-2.651 7.795.388 10.62 3.041 2.826 7.796 2.651 10.62-.388l120.124-129.252c7.035-7.571 18.611-8.651 26.927-2.512 9.371 6.588 11.02 20.971 3.384 29.51 0 0-59.433 69.641-59.434 69.643l-64.469 75.544c-2.694 3.157-2.319 7.9.838 10.594 3.142 2.684 7.89 2.33 10.594-.838l64.472-75.547c7.693-9.013 20.976-10.287 30.243-2.899 4.685 3.735 7.574 9.078 8.134 15.044s-1.284 11.753-5.192 16.296l-54.448 63.278c-2.707 3.146-2.351 7.89.795 10.597 3.132 2.698 7.881 2.361 10.597-.795l51.654-60.03c3.788-4.242 8.978-6.708 14.68-6.933 5.839-.228 11.333 1.91 15.478 6.025 7.556 7.502 8.243 19.432 1.598 27.752l-42.467 53.165c-2.593 3.241-2.067 7.97 1.174 10.562 3.241 2.593 7.97 2.067 10.562-1.174l37.674-47.093c5.681-7.102 15.708-8.707 23.323-3.733 7.326 4.785 10.015 14.353 6.255 22.255l-12.782 26.856c-1.784 3.747-.192 8.231 3.556 10.014 3.663 1.768 8.226.23 10.014-3.556l12.782-26.856c6.98-14.661 1.99-32.415-11.605-41.294zm-190.73-179.734c.16-1.821 1.473-2.5 2.995-2.05 19.481 7.57 32.069 25.966 32.069 46.866v4.957l-35.065 37.729v-87.502z"/><path d="m369.94 443.49c-3.748-1.786-8.231-.191-10.015 3.556l-13.418 28.194c-6.249 13.131-19.622 21.66-34.07 21.73l-.564.001c-.009 0-.017 0-.026 0-21.473 0-31.531-18.348-31.931-19.095-.968-1.856-2.684-3.212-4.704-3.763-2.019-.551-4.196-.224-5.973.884-.627.39-15.531 9.471-30.69.831-16.642-9.487-14.673-26.647-14.589-27.318.364-2.561-.628-5.125-2.605-6.794-1.976-1.669-4.685-2.201-7.15-1.413-.154.05-15.623 4.87-27.867-1.852-15.32-8.411-15.508-23.334-15.509-23.9.039-2.314-.99-4.517-2.789-5.971-1.799-1.455-4.169-1.999-6.423-1.477-15.809 3.67-27.191-4.946-32.57-14.231-5.239-9.045-7.345-23.924 3.962-36.091l19.622-21.113c2.825-3.04 2.651-7.795-.389-10.62-3.041-2.825-7.795-2.651-10.62.389l-19.622 21.114c-13.903 14.96-16.242 36.099-5.958 53.854 8.741 15.091 24.217 23.391 40.884 22.495 1.97 8.25 7.377 20.599 22.18 28.726 10.619 5.83 22.203 5.925 30.118 4.958 1.218 9.39 5.899 23.19 21.882 32.302 15.8 9.007 31.105 5.445 39.535 2.079 6.16 8.03 19.489 21.039 41.2 21.037h.038l.632-.001c20.182-.097 38.853-11.991 47.567-30.3l13.418-28.194c1.784-3.75.192-8.234-3.556-10.017z"/><path d="m251.799 123.669c2.074 1.008 4.497 1.008 6.571 0 .543-.264 13.465-6.593 27.796-17.565 3.295-2.523 3.921-7.24 1.398-10.535-2.522-3.295-7.24-3.921-10.535-1.398-8.973 6.87-17.465 11.814-21.943 14.257-5.59-3.05-17.435-10.001-28.697-19.744-24.184-20.924-27.436-38.649-25.906-49.834 2.722-19.894 16.924-23.211 22.903-23.714 11.335-.954 21.877 4.708 24.527 13.165.982 3.135 3.886 5.268 7.171 5.268s6.188-2.133 7.171-5.268c2.651-8.459 13.194-14.115 24.528-13.165 5.979.503 20.181 3.82 22.903 23.714 1.591 11.635-2.533 23.698-12.26 35.854-2.593 3.241-2.068 7.97 1.172 10.562 3.241 2.593 7.97 2.067 10.562-1.172 12.4-15.498 17.587-31.405 15.415-47.281-3.427-25.048-21.119-35.357-36.534-36.653-12.991-1.089-25.197 3.505-32.956 11.638-7.76-8.132-19.966-12.73-32.958-11.638-15.415 1.296-33.108 11.605-36.535 36.653-6.932 50.677 63.217 85.403 66.207 86.856z"/></g></svg>